<svg width="16" height="17" viewBox="0 0 16 17" fill="none" xmlns="http://www.w3.org/2000/svg">
<path d="M7.125 9H10.875M4.875 9H4.88174M8.625 12H4.875M10.875 12H10.8683" stroke="white" stroke-width="1.5" stroke-linecap="round" stroke-linejoin="round"/>
<path d="M12.375 0.75V2.25M3.375 0.75V2.25" stroke="white" stroke-width="1.5" stroke-linecap="round" stroke-linejoin="round"/>
<path d="M0.75 8.43243C0.75 5.16445 0.75 3.53046 1.68909 2.51523C2.62818 1.5 4.13962 1.5 7.1625 1.5H8.5875C11.6104 1.5 13.1218 1.5 14.0609 2.51523C15 3.53046 15 5.16445 15 8.43243V8.81757C15 12.0855 15 13.7195 14.0609 14.7348C13.1218 15.75 11.6104 15.75 8.5875 15.75H7.1625C4.13962 15.75 2.62818 15.75 1.68909 14.7348C0.75 13.7195 0.75 12.0855 0.75 8.81757V8.43243Z" stroke="white" stroke-width="1.5" stroke-linecap="round" stroke-linejoin="round"/>
<path d="M1.125 5.25H14.625" stroke="white" stroke-width="1.5" stroke-linecap="round" stroke-linejoin="round"/>
</svg>
